<svg width="1080" height="1080" viewBox="0 0 1080 1080" fill="none" xmlns="http://www.w3.org/2000/svg">
<rect width="1080" height="1080" rx="70" fill="#002642"/>
<path d="M299.49 315.046C300.803 315.038 302.116 315.029 303.469 315.02C304.865 315.048 306.261 315.075 307.699 315.103C309.156 315.106 310.612 315.11 312.113 315.113C315.186 315.127 318.259 315.157 321.331 315.203C326.017 315.272 330.701 315.289 335.387 315.297C338.38 315.317 341.372 315.34 344.365 315.366C345.758 315.373 347.151 315.381 348.586 315.388C366.05 315.685 366.05 315.685 371.918 320.747C372.429 321.482 372.94 322.216 373.466 322.973C376.076 327.122 376.076 327.122 379.329 328.486C379.329 329.41 379.329 330.334 379.329 331.286C380.253 331.286 381.177 331.286 382.129 331.286C382.129 332.211 382.129 333.135 382.129 334.087C383.515 334.549 384.902 335.011 386.33 335.487C386.33 336.411 386.33 337.335 386.33 338.287C387.109 338.605 387.889 338.922 388.692 339.25C392.856 341.613 395.738 344.541 398.931 348.088C398.931 349.012 398.931 349.936 398.931 350.888C401.01 351.581 401.01 351.581 403.131 352.288C405.294 354.474 405.294 354.474 407.598 357.263C412.826 363.42 418.372 369.165 424.064 374.892C425.131 375.97 426.198 377.048 427.297 378.159C430.79 381.687 434.289 385.209 437.789 388.729C438.99 389.937 440.191 391.146 441.428 392.391C447.77 398.77 454.116 405.143 460.467 411.514C465.717 416.783 470.957 422.062 476.188 427.35C482.52 433.751 488.869 440.135 495.231 446.507C497.649 448.935 500.061 451.368 502.467 453.807C505.825 457.209 509.204 460.588 512.588 463.963C513.577 464.974 514.566 465.986 515.584 467.028C519.756 471.147 522.524 473.773 528.175 475.579C533.597 475.462 535.788 473.251 539.816 469.722C541.105 468.621 542.394 467.52 543.721 466.386C547.423 462.976 547.423 462.976 550.437 458.97C551.677 457.448 551.677 457.448 552.942 455.896C553.866 455.896 554.79 455.896 555.743 455.896C556.109 455.057 556.476 454.217 556.853 453.352C558.657 450.089 560.291 448.516 563.175 446.188C568.534 441.652 573.514 436.848 578.456 431.87C579.231 431.09 580.006 430.311 580.804 429.508C583.216 427.077 585.625 424.642 588.033 422.206C606.246 403.778 606.246 403.778 615.947 395.691C618.298 393.375 620.629 391.039 622.948 388.691C624.31 387.321 625.672 385.951 627.035 384.581C627.755 383.857 628.475 383.132 629.217 382.385C632.479 379.104 635.745 375.827 639.012 372.55C640.722 370.833 642.431 369.114 644.139 367.394C660.666 350.753 660.666 350.753 669.456 343.28C675.087 338.331 680.209 332.825 685.419 327.442C686.294 326.552 687.168 325.662 688.069 324.745C688.841 323.95 689.613 323.154 690.408 322.335C696.315 317.114 700.847 315.358 708.734 315.297C710.477 315.275 712.22 315.253 714.016 315.23C715.906 315.228 717.796 315.228 719.686 315.229C721.637 315.219 723.588 315.208 725.539 315.197C729.62 315.178 733.702 315.176 737.783 315.184C743.005 315.192 748.225 315.149 753.446 315.093C757.472 315.056 761.498 315.052 765.525 315.058C767.449 315.055 769.374 315.042 771.299 315.017C773.992 314.986 776.686 315.004 779.38 315.024C780.91 315.021 782.44 315.018 784.017 315.015C790.038 316.28 791.766 317.688 795.161 322.886C796.22 329.083 796.145 335.222 796.111 341.496C796.125 343.41 796.142 345.324 796.162 347.238C796.206 352.428 796.205 357.618 796.193 362.808C796.188 367.146 796.203 371.485 796.218 375.823C796.253 386.064 796.252 396.305 796.227 406.545C796.203 417.094 796.24 427.641 796.307 438.19C796.363 447.259 796.38 456.328 796.368 465.397C796.36 470.808 796.367 476.218 796.411 481.629C796.451 486.722 796.442 491.813 796.397 496.906C796.385 499.652 796.421 502.399 796.458 505.146C796.34 513.45 796.023 518.97 790.468 525.403C788.799 527.005 787.097 528.573 785.36 530.102C783.835 531.669 782.318 533.244 780.815 534.832C779.329 536.322 777.84 537.808 776.347 539.29C775.252 540.393 775.252 540.393 774.135 541.519C770.312 545.332 766.412 548.97 762.295 552.464C754.31 559.427 746.909 566.978 739.441 574.484C737.87 576.058 736.298 577.631 734.726 579.204C730.619 583.317 726.516 587.434 722.414 591.551C718.239 595.741 714.059 599.927 709.88 604.113C702.537 611.469 695.198 618.829 687.861 626.191C684.552 629.509 684.552 629.509 681.226 632.137C678.522 635.094 678.522 635.094 678.692 639.692C680.951 646.792 684.825 650.491 690.106 655.596C691.126 656.615 692.146 657.634 693.197 658.683C696.565 662.039 699.963 665.364 703.361 668.69C705.708 671.019 708.054 673.349 710.398 675.681C716.568 681.811 722.762 687.917 728.963 694.016C736.498 701.438 744.008 708.886 751.518 716.332C757.36 722.124 763.207 727.911 769.069 733.684C770.144 734.745 771.219 735.806 772.327 736.9C774.336 738.883 776.348 740.864 778.363 742.841C779.249 743.716 780.134 744.591 781.046 745.493C781.816 746.251 782.586 747.008 783.379 747.789C785.36 749.918 785.36 749.918 788.16 754.119C787.711 757.807 787.021 760.597 785.36 763.919C746.549 763.919 707.738 763.919 667.751 763.919C667.751 762.995 667.751 762.071 667.751 761.119C666.349 760.738 666.349 760.738 664.918 760.349C658.878 757.407 654.791 752.967 650.082 748.238C649.031 747.2 647.981 746.161 646.899 745.091C643.433 741.658 639.982 738.209 636.533 734.758C634.13 732.365 631.726 729.972 629.322 727.579C624.287 722.563 619.26 717.538 614.239 712.509C607.8 706.061 601.335 699.64 594.864 693.225C589.894 688.291 584.94 683.341 579.99 678.386C577.613 676.011 575.23 673.642 572.842 671.279C569.507 667.975 566.194 664.649 562.887 661.317C561.895 660.343 560.903 659.37 559.88 658.367C554.82 653.218 551.534 649.729 551.542 642.11C552.86 639.529 552.86 639.529 555.13 637.21C556.023 636.277 556.917 635.344 557.837 634.382C558.994 633.236 560.151 632.09 561.343 630.909C562.936 629.301 564.527 627.691 566.118 626.08C570.29 621.871 574.491 617.692 578.706 613.525C580.727 611.523 582.74 609.513 584.751 607.501C586.635 605.617 588.525 603.739 590.428 601.874C594.712 597.663 598.804 593.364 602.734 588.819C606.952 583.945 611.225 579.298 615.947 574.905C616.926 574.72 617.626 574.02 618.326 573.32C618.701 572.481 618.639 572.783 619.026 571.92C620.707 568.823 623.137 567.492 625.737 565.148C626.595 564.362 627.454 563.576 628.338 562.766C629.274 561.921 630.209 561.075 631.173 560.204C640.593 551.533 649.77 542.652 658.825 533.602C660.002 532.431 661.178 531.261 662.391 530.055C668.042 524.391 673.453 518.657 678.587 512.521C681.608 509.062 685.144 506.318 688.714 503.456C694.697 497.646 698.895 492.847 699.348 484.388C699.347 481.951 699.308 479.514 699.237 477.078C699.227 475.787 699.217 474.495 699.207 473.165C699.168 469.07 699.08 464.978 698.991 460.884C698.956 458.096 698.924 455.307 698.895 452.519C698.818 445.71 698.698 438.902 698.553 432.094C682.763 437.529 669.858 455.057 658.3 466.747C654.987 470.098 651.668 473.445 648.346 476.788C647.237 477.915 647.237 477.915 646.105 479.065C641.406 483.794 636.499 488.067 631.348 492.299C629.781 494.004 628.258 495.751 626.798 497.549C623.277 501.694 619.602 505.327 615.499 508.892C605.61 517.703 596.382 527.166 587.07 536.577C566.75 557.113 566.75 557.113 558.178 564.38C553.693 568.292 549.577 572.579 545.417 576.83C543.717 578.565 542.015 580.297 540.309 582.026C539.573 582.777 538.838 583.529 538.081 584.303C534.253 587.86 530.365 588.245 525.214 588.16C519.061 586.851 515.359 582.078 511.185 577.645C510.192 576.636 509.199 575.627 508.176 574.588C505.015 571.365 501.896 568.105 498.776 564.842C496.663 562.673 494.547 560.506 492.429 558.342C488.534 554.356 484.656 550.357 480.795 546.339C476.889 542.278 472.935 538.272 468.936 534.302C450.268 515.634 431.6 496.966 412.932 478.298C411.846 477.217 410.76 476.137 409.642 475.023C406.077 471.444 402.565 467.821 399.062 464.182C397.117 462.189 395.173 460.197 393.226 458.207C391.889 456.835 390.559 455.457 389.234 454.072C387.306 452.059 385.352 450.069 383.398 448.081C382.248 446.893 381.097 445.706 379.912 444.483C375.95 441.452 374.355 441.658 369.528 441.895C369.528 443.512 369.527 445.129 369.526 446.795C369.506 485.175 369.451 523.554 369.351 561.934C369.338 566.657 369.326 571.38 369.315 576.103C369.312 577.043 369.31 577.984 369.308 578.952C369.27 594.181 369.257 609.409 369.254 624.637C369.25 640.261 369.218 655.885 369.164 671.508C369.134 680.285 369.116 689.061 369.128 697.838C369.138 706.095 369.116 714.351 369.069 722.608C369.057 725.642 369.058 728.676 369.071 731.709C369.087 735.846 369.061 739.981 369.023 744.118C369.038 745.323 369.053 746.528 369.069 747.77C368.965 753.867 368.686 756.211 364.788 761.164C360.754 764.201 358.993 764.802 354.018 764.825C352.639 764.847 351.261 764.869 349.841 764.892C347.631 764.871 347.631 764.871 345.376 764.849C343.849 764.856 342.322 764.863 340.748 764.87C337.524 764.874 334.299 764.861 331.075 764.832C326.142 764.795 321.213 764.832 316.281 764.877C313.145 764.872 310.009 764.863 306.874 764.849C305.4 764.863 303.927 764.878 302.409 764.892C301.031 764.87 299.652 764.848 298.232 764.825C297.025 764.82 295.818 764.814 294.575 764.808C290.728 763.818 288.359 762.387 285.619 759.503C282.204 753.609 283.165 746.254 283.223 739.647C283.206 736.986 283.206 736.986 283.187 734.273C283.155 729.353 283.167 724.434 283.186 719.515C283.199 714.208 283.172 708.902 283.15 703.595C283.113 693.201 283.115 682.807 283.13 672.412C283.142 663.965 283.141 655.519 283.13 647.072C283.129 645.87 283.128 644.669 283.126 643.431C283.123 640.99 283.12 638.549 283.117 636.108C283.09 613.212 283.106 590.316 283.138 567.421C283.163 547.77 283.148 528.119 283.104 508.468C283.052 485.655 283.028 462.842 283.047 440.029C283.049 437.597 283.05 435.165 283.052 432.733C283.053 431.536 283.054 430.339 283.055 429.107C283.059 420.669 283.043 412.231 283.02 403.793C282.991 393.512 282.992 383.231 283.032 372.95C283.051 367.703 283.057 362.457 283.026 357.21C282.993 351.525 283.026 345.843 283.064 340.158C283.045 338.494 283.025 336.831 283.005 335.117C283.155 324.261 283.155 324.261 285.94 320.301C290.196 316.596 293.896 315.011 299.49 315.046Z" fill="#E59501"/>
</svg>
